<?xml version="1.0" encoding="utf-8"?>
<!-- Generator: Adobe Illustrator 14.0.0, SVG Export Plug-In  -->
<!DOCTYPE svg PUBLIC "-//W3C//DTD SVG 1.1//EN" "http://www.w3.org/Graphics/SVG/1.1/DTD/svg11.dtd" [
	<!ENTITY ns_flows "http://ns.adobe.com/Flows/1.0/">
]>
<svg version="1.1"
	 xmlns="http://www.w3.org/2000/svg" xmlns:xlink="http://www.w3.org/1999/xlink" xmlns:a="http://ns.adobe.com/AdobeSVGViewerExtensions/3.0/"
	 x="0px" y="0px" width="200px" height="20px" viewBox="0 0 200 20" enable-background="new 0 0 200 20" xml:space="preserve">
<defs>
</defs>
<path fill="#FFFFFF" d="M192.465,17.035H200v-2.844h-0.694c-0.23,0-0.555-0.347-0.555-0.577V1.872c0-0.624-0.277-1.017-0.739-1.017
	h-5.594v2.958h0.717c0.23,0,0.555,0.347,0.555,0.578v9.223c0,0.23-0.324,0.577-0.555,0.577h-0.67V17.035z M185.16,14.238
	c-1.062,0-1.756-0.994-1.756-3.213c0-2.195,0.693-3.144,1.756-3.144c1.04,0,1.734,0.948,1.734,3.144
	C186.895,13.244,186.2,14.238,185.16,14.238 M185.16,17.242c3.977,0,6.842-2.356,6.842-6.239c0-3.907-2.865-6.403-6.842-6.403
	c-3.998,0-6.864,2.496-6.864,6.403C178.296,14.886,181.162,17.242,185.16,17.242 M170.737,8.229c1.041,0,1.872,0.485,1.872,2.797
	c0,2.589-0.9,3.189-1.895,3.189c-0.485,0-0.832-0.115-1.133-0.301V8.413C169.952,8.32,170.368,8.229,170.737,8.229 M172.541,17.266
	c2.981,0,5.177-2.08,5.177-6.679c0-4.623-2.195-5.987-4.507-5.987c-1.642,0-2.751,0.739-3.629,1.711V1.872
	c0-0.624-0.277-1.017-0.717-1.017h-5.523v2.958h0.624c0.23,0,0.577,0.347,0.577,0.578v12.644h3.397c0.324,0,0.81-0.602,1.156-1.295
	C169.767,16.619,170.83,17.266,172.541,17.266 M155.183,7.858h1.201v5.825c0,2.843,1.78,3.605,4.461,3.605
	c1.156,0,2.081-0.185,2.682-0.347v-2.751h-0.624c-1.109,0-1.456-0.323-1.456-1.363v-4.97h2.034V4.831h-2.034V1.664h-5.062v3.167
	h-1.201V7.858z M144.712,17.242c1.942,0,3.236-0.785,4.276-1.871c0.139,1.317,0.462,1.664,0.924,1.664h5.178v-2.844h-0.531
	c-0.231,0-0.555-0.369-0.555-0.577V4.831h-6.287v3.027h1.226v5.64c-0.37,0.07-0.717,0.093-0.901,0.093
	c-1.018,0-1.503-0.208-1.503-1.155V4.831h-6.102v3.027h0.485c0.208,0,0.555,0.347,0.555,0.578v5.894
	C141.477,16.573,143.095,17.242,144.712,17.242 M136.508,7.674h-3.006v3.352h3.006V7.674z M136.138,4.045L136.6,6.38h3.12V0.855
	h-6.218v3.189H136.138z M126.083,17.035h8.437v-2.844h-1.711V0.855h-6.726v2.958h0.67c0.277,0,0.647,0.394,0.647,0.647v9.061
	c0,0.255-0.37,0.67-0.647,0.67h-0.67V17.035z M118.964,17.242c4.068,0,5.779-1.524,5.779-4.368c0-2.842-1.549-3.559-4.577-3.929
	c-1.456-0.185-1.826-0.324-1.826-0.74s0.347-0.646,1.364-0.646c0.947,0,1.571,0.323,1.941,0.854h2.635V5.224
	c-1.179-0.369-2.565-0.624-4.808-0.624c-3.421,0-5.594,1.294-5.594,4.114c0,2.751,1.549,3.698,4.207,3.999
	c1.571,0.161,1.964,0.301,1.964,0.809c0,0.509-0.554,0.739-1.363,0.739c-0.924,0-1.757-0.416-2.126-1.086h-2.658v3.398
	C114.988,16.92,116.514,17.242,118.964,17.242 M104.911,4.16h2.843l2.312-2.011V0.855h-4.6L104.911,4.16z M106.229,14.354
	c-0.624,0-1.109-0.23-1.109-1.109c0-0.901,0.439-1.202,1.248-1.202c0.301,0,0.671,0.047,0.971,0.093v1.826
	C106.992,14.215,106.668,14.354,106.229,14.354 M104.172,17.197c1.479,0,2.635-0.417,3.514-1.41
	c0.393,0.924,1.202,1.455,2.773,1.455c1.201,0,2.172-0.254,2.889-0.646v-2.404h-0.394c-0.23,0-0.555-0.347-0.555-0.577V8.737
	c0-2.867-1.641-4.138-5.478-4.138c-2.496,0-4.415,0.393-5.709,0.855v3.444h2.104c0.485-0.394,1.133-0.832,2.381-0.832
	c1.179,0,1.641,0.393,1.641,1.248v0.739c-0.67-0.115-1.317-0.162-2.219-0.162c-2.866,0-4.738,1.156-4.738,3.813
	C100.381,16.064,102.138,17.197,104.172,17.197 M94.187,0.855h-3.352l-1.572,6.079l1.549,6.356L94.187,0.855z M78.146,17.035h6.563
	v-2.844h-1.387V7.744l-1.849-6.889h-3.328v2.958h0.669c0.278,0,0.647,0.394,0.647,0.647v9.061c0,0.255-0.37,0.67-0.647,0.67h-0.669
	V17.035z M86.536,17.035h3.259l0.647-2.381L87.044,0.855H82.19L86.536,17.035z M91.737,14.191v2.844h7.881v-2.844h-0.693
	c-0.254,0-0.624-0.415-0.624-0.67V4.461c0-0.254,0.37-0.647,0.624-0.647h0.693V0.855h-4.762l-1.826,6.865v6.471H91.737z
	 M70.472,14.238c-1.063,0-1.756-0.994-1.756-3.213c0-2.195,0.693-3.144,1.756-3.144c1.041,0,1.733,0.948,1.733,3.144
	C72.206,13.244,71.513,14.238,70.472,14.238 M70.472,17.242c3.976,0,6.842-2.356,6.842-6.239c0-3.907-2.866-6.403-6.842-6.403
	c-3.999,0-6.865,2.496-6.865,6.403C63.607,14.886,66.474,17.242,70.472,17.242 M53.207,17.035h7.465v-2.844H59.4V8.945
	c0.671-0.185,1.734-0.37,3.306-0.37h0.508V4.831c-0.346-0.115-0.531-0.14-0.739-0.14c-1.549,0-2.381,0.764-3.144,1.804
	c-0.116-1.317-0.439-1.664-0.902-1.664h-5.292v3.027h0.647c0.232,0,0.578,0.37,0.578,0.578v5.178c0,0.23-0.346,0.577-0.578,0.577
	h-0.578V17.035z M46.55,7.489c0.879,0,1.271,0.578,1.387,2.149h-2.912C45.187,8.067,45.648,7.489,46.55,7.489 M52.582,12.02
	c0-0.162,0.047-0.624,0.047-1.202c0-4.276-1.942-6.218-6.079-6.218c-4.09,0-6.61,2.496-6.61,6.403c0,3.859,1.918,6.239,6.679,6.239
	c2.797,0,4.415-0.485,5.524-1.108v-2.936h-2.658c-0.462,0.601-1.086,1.04-2.334,1.04c-1.387,0-1.987-0.67-2.149-2.219H52.582z
	 M36.38,4.346c1.387,0,2.357-0.855,2.357-2.149C38.737,0.879,37.768,0,36.38,0c-1.364,0-2.334,0.879-2.334,2.196
	C34.046,3.49,35.017,4.346,36.38,4.346 M32.705,17.035h7.397v-2.844H39.5c-0.231,0-0.578-0.347-0.578-0.577V6.01
	c0-0.763-0.254-1.179-0.717-1.179h-5.57v3.027h0.671c0.23,0,0.554,0.37,0.554,0.578v5.178c0,0.23-0.324,0.577-0.554,0.577h-0.602
	V17.035z M21.772,17.242c1.942,0,3.237-0.785,4.277-1.871c0.138,1.317,0.462,1.664,0.924,1.664h5.177v-2.844h-0.532
	c-0.23,0-0.554-0.369-0.554-0.577V4.831h-6.287v3.027h1.225v5.64c-0.37,0.07-0.717,0.093-0.902,0.093
	c-1.017,0-1.502-0.208-1.502-1.155V4.831h-6.102v3.027h0.485c0.208,0,0.555,0.347,0.555,0.578v5.894
	C18.537,16.573,20.154,17.242,21.772,17.242 M0,8.945c0,5.339,3.12,7.697,8.02,8.32v-3.397c-1.502-0.207-2.473-1.802-2.473-4.83
	s0.97-4.554,2.473-4.762V0.601C3.559,0.763,0,3.722,0,8.945 M13.383,19.739h3.86v-2.844c-0.74-0.715-2.08-1.386-4.645-1.688v-0.092
	c2.495-0.855,4.137-2.797,4.137-6.171c0-5.224-3.56-8.183-8.021-8.345v3.676c1.479,0.208,2.473,1.733,2.473,4.762
	s-0.994,4.623-2.473,4.83v3.514C11.118,17.774,12.574,18.537,13.383,19.739"/>
</svg>
