<?xml version="1.0" encoding="utf-8"?>
<!-- Generator: Adobe Illustrator 14.0.0, SVG Export Plug-In  -->
<!DOCTYPE svg PUBLIC "-//W3C//DTD SVG 1.1//EN" "http://www.w3.org/Graphics/SVG/1.1/DTD/svg11.dtd" [
	<!ENTITY ns_flows "http://ns.adobe.com/Flows/1.0/">
]>
<svg version="1.1"
	 xmlns="http://www.w3.org/2000/svg" xmlns:xlink="http://www.w3.org/1999/xlink" xmlns:a="http://ns.adobe.com/AdobeSVGViewerExtensions/3.0/"
	 x="0px" y="0px" width="221px" height="29px" viewBox="0 0 221 29" enable-background="new 0 0 221 29" xml:space="preserve">
<defs>
</defs>
<path fill="#FFFFFF" d="M213.322,21.286h6.918v-2.61h-0.637c-0.211,0-0.51-0.318-0.51-0.531V7.364c0-0.573-0.254-0.934-0.68-0.934
	h-5.135v2.716h0.658c0.211,0,0.51,0.319,0.51,0.531v8.467c0,0.213-0.299,0.531-0.51,0.531h-0.615V21.286z M206.615,18.718
	c-0.975,0-1.611-0.912-1.611-2.95c0-2.016,0.637-2.885,1.611-2.885c0.955,0,1.592,0.87,1.592,2.885
	C208.207,17.806,207.57,18.718,206.615,18.718 M206.615,21.477c3.65,0,6.281-2.164,6.281-5.729c0-3.587-2.631-5.879-6.281-5.879
	c-3.67,0-6.303,2.292-6.303,5.879C200.312,19.312,202.945,21.477,206.615,21.477 M193.373,13.2c0.955,0,1.719,0.446,1.719,2.567
	c0,2.377-0.826,2.93-1.74,2.93c-0.445,0-0.764-0.107-1.039-0.277v-5.05C192.652,13.285,193.033,13.2,193.373,13.2 M195.029,21.498
	c2.738,0,4.754-1.91,4.754-6.133c0-4.245-2.016-5.497-4.139-5.497c-1.508,0-2.525,0.679-3.332,1.571V7.364
	c0-0.573-0.256-0.934-0.658-0.934h-5.072v2.716h0.574c0.211,0,0.529,0.319,0.529,0.531v11.608h3.119
	c0.297,0,0.744-0.553,1.062-1.188C192.482,20.904,193.459,21.498,195.029,21.498 M179.092,12.86h1.104v5.349
	c0,2.609,1.635,3.311,4.096,3.311c1.061,0,1.91-0.17,2.461-0.318v-2.525h-0.572c-1.02,0-1.338-0.297-1.338-1.252V12.86h1.869v-2.78
	h-1.869V7.173h-4.646v2.907h-1.104V12.86z M169.479,21.477c1.781,0,2.971-0.721,3.926-1.719c0.127,1.21,0.424,1.528,0.848,1.528
	h4.754v-2.61h-0.486c-0.213,0-0.51-0.34-0.51-0.531v-8.064h-5.773v2.78h1.125v5.179c-0.34,0.064-0.658,0.084-0.828,0.084
	c-0.934,0-1.379-0.189-1.379-1.061v-6.982h-5.602v2.78h0.445c0.191,0,0.51,0.319,0.51,0.531v5.411
	C166.508,20.861,167.992,21.477,169.479,21.477 M161.945,12.691h-2.76v3.077h2.76V12.691z M161.605,9.359l0.424,2.144h2.865V6.431
	h-5.709v2.928H161.605z M152.373,21.286h7.746v-2.61h-1.57V6.431h-6.176v2.716h0.615c0.256,0,0.596,0.361,0.596,0.595v8.319
	c0,0.233-0.34,0.615-0.596,0.615h-0.615V21.286z M145.838,21.477c3.734,0,5.305-1.4,5.305-4.011c0-2.61-1.422-3.268-4.201-3.607
	c-1.338-0.17-1.678-0.297-1.678-0.679s0.318-0.594,1.254-0.594c0.869,0,1.441,0.297,1.781,0.785h2.42v-2.928
	c-1.084-0.339-2.355-0.573-4.414-0.573c-3.141,0-5.137,1.188-5.137,3.778c0,2.526,1.422,3.395,3.863,3.671
	c1.441,0.148,1.803,0.276,1.803,0.743s-0.508,0.679-1.252,0.679c-0.85,0-1.613-0.382-1.953-0.998h-2.439v3.12
	C142.188,21.18,143.588,21.477,145.838,21.477 M132.936,9.465h2.609l2.121-1.846V6.431h-4.221L132.936,9.465z M134.145,18.824
	c-0.574,0-1.02-0.212-1.02-1.019c0-0.827,0.404-1.104,1.146-1.104c0.275,0,0.615,0.042,0.891,0.085v1.676
	C134.846,18.697,134.547,18.824,134.145,18.824 M132.256,21.435c1.357,0,2.418-0.382,3.225-1.294
	c0.361,0.848,1.105,1.336,2.547,1.336c1.104,0,1.994-0.233,2.654-0.594v-2.207h-0.363c-0.211,0-0.508-0.318-0.508-0.531v-4.478
	c0-2.632-1.506-3.799-5.029-3.799c-2.291,0-4.055,0.361-5.242,0.786v3.162h1.932c0.445-0.361,1.039-0.764,2.186-0.764
	c1.082,0,1.506,0.36,1.506,1.146v0.679c-0.615-0.106-1.209-0.149-2.037-0.149c-2.631,0-4.35,1.061-4.35,3.502
	C128.775,20.395,130.389,21.435,132.256,21.435 M123.088,6.431h-3.078l-1.443,5.581l1.424,5.837L123.088,6.431z M108.36,21.286
	h6.027v-2.61h-1.273v-5.92l-1.697-6.325h-3.056v2.716h0.615c0.254,0,0.594,0.361,0.594,0.595v8.319c0,0.233-0.34,0.615-0.594,0.615
	h-0.615V21.286z M116.062,21.286h2.992l0.596-2.187l-3.121-12.669h-4.455L116.062,21.286z M120.838,18.676v2.61h7.236v-2.61h-0.637
	c-0.232,0-0.572-0.382-0.572-0.615V9.741c0-0.233,0.34-0.595,0.572-0.595h0.637V6.431h-4.371l-1.676,6.303v5.942H120.838z
	 M101.314,18.718c-0.976,0-1.613-0.912-1.613-2.95c0-2.016,0.637-2.885,1.613-2.885c0.955,0,1.592,0.87,1.592,2.885
	C102.906,17.806,102.269,18.718,101.314,18.718 M101.314,21.477c3.65,0,6.282-2.164,6.282-5.729c0-3.587-2.632-5.879-6.282-5.879
	c-3.671,0-6.303,2.292-6.303,5.879C95.011,19.312,97.643,21.477,101.314,21.477 M85.461,21.286h6.854v-2.61h-1.167v-4.817
	c0.616-0.17,1.592-0.34,3.035-0.34h0.467v-3.438c-0.318-0.105-0.488-0.128-0.679-0.128c-1.422,0-2.186,0.701-2.886,1.656
	c-0.107-1.209-0.403-1.528-0.828-1.528h-4.859v2.78h0.594c0.213,0,0.531,0.34,0.531,0.531v4.753c0,0.213-0.318,0.531-0.531,0.531
	h-0.531V21.286z M79.349,12.521c0.807,0,1.167,0.531,1.273,1.975h-2.673C78.098,13.052,78.522,12.521,79.349,12.521 M84.888,16.681
	c0-0.148,0.043-0.573,0.043-1.104c0-3.926-1.784-5.709-5.582-5.709c-3.755,0-6.069,2.292-6.069,5.879
	c0,3.544,1.761,5.729,6.133,5.729c2.568,0,4.054-0.445,5.072-1.019v-2.694h-2.441c-0.424,0.551-0.997,0.954-2.143,0.954
	c-1.273,0-1.825-0.614-1.974-2.037H84.888z M70.012,9.636c1.274,0,2.165-0.787,2.165-1.974c0-1.21-0.89-2.016-2.165-2.016
	c-1.251,0-2.143,0.806-2.143,2.016C67.869,8.849,68.76,9.636,70.012,9.636 M66.637,21.286h6.792v-2.61h-0.552
	c-0.212,0-0.531-0.318-0.531-0.531v-6.981c0-0.701-0.234-1.083-0.658-1.083h-5.114v2.78h0.615c0.212,0,0.509,0.34,0.509,0.531v4.753
	c0,0.213-0.297,0.531-0.509,0.531h-0.552V21.286z M56.6,21.477c1.783,0,2.972-0.721,3.926-1.719c0.127,1.21,0.424,1.528,0.849,1.528
	h4.754v-2.61H65.64c-0.212,0-0.509-0.34-0.509-0.531v-8.064h-5.773v2.78h1.125v5.179c-0.339,0.064-0.658,0.084-0.828,0.084
	c-0.934,0-1.379-0.189-1.379-1.061v-6.982h-5.602v2.78h0.445c0.191,0,0.51,0.319,0.51,0.531v5.411
	C53.629,20.861,55.114,21.477,56.6,21.477 M36.609,13.858c0,4.901,2.865,7.067,7.364,7.64v-3.119
	c-1.379-0.191-2.271-1.655-2.271-4.436c0-2.78,0.891-4.181,2.271-4.372V6.197C39.877,6.346,36.609,9.062,36.609,13.858
	 M48.896,23.769h3.544v-2.61c-0.679-0.656-1.91-1.273-4.265-1.549v-0.085c2.291-0.785,3.798-2.567,3.798-5.666
	c0-4.796-3.269-7.513-7.364-7.662v3.375c1.358,0.191,2.271,1.592,2.271,4.372c0,2.78-0.913,4.244-2.271,4.436v3.227
	C46.817,21.965,48.154,22.665,48.896,23.769"/>
<path fill="#FFFFFF" d="M26.271,22.945C27.981,20.564,29,17.654,29,14.5C29,6.492,22.508,0,14.5,0C6.492,0,0,6.492,0,14.5
	C0,22.508,6.492,29,14.5,29c2.156,0,4.193-0.483,6.032-1.326L21.858,29h10.468L26.271,22.945z"/>
<path fill="#3FAC49" d="M19.808,19.75h-1.697v-9.739V9.759V7.12h-6.409v2.891h1.634v9.739h-1.634v2.889h8.105V19.75z M19.054,16.168
	h3.274v-3.204h-3.274V16.168z M25.032,11.707V7.183h-0.01V7.12h-5.969v2.891h3.007l0.359,1.696H25.032z"/>
<rect x="6.335" y="10.288" fill="#3FAC49" width="0.855" height="9.119"/>
<rect x="2.204" y="14.134" fill="#3FAC49" width="9.117" height="0.855"/>
</svg>
